<?xml version="1.0" encoding="utf-8"?>
<!DOCTYPE svg PUBLIC "-//W3C//DTD SVG 20010904//EN" "http://www.w3.org/TR/2001/REC-SVG-20010904/DTD/svg10.dtd">
<svg version="1.0" xmlns="http://www.w3.org/2000/svg" width="258pt" height="235pt" viewBox="0 0 258 235" style="" preserveAspectRatio="xMidYMid meet">
<g fill="#3EA9C2FF" stroke="#3EA9C2FF">
<path d="M 227.014 60.250 C 227.054 63.974 228.350 66.000 230.690 66.000 C 233.875 66.000 233.479 69.357 230.240 69.820 C 228.354 70.089 228.000 70.761 228.000 74.070 C 228.000 81.057 226.227 78.239 225.282 69.750 C 224.400 61.824 224.313 61.618 223.082 64.500 C 222.221 66.515 221.992 69.867 222.384 74.710 C 223.019 82.549 222.544 85.000 220.393 85.000 C 219.290 85.000 219.000 82.788 219.000 74.358 L 219.000 63.717 206.750 64.383 C 200.013 64.749 189.538 65.323 183.474 65.658 L 172.448 66.267 159.004 101.174 C 147.083 132.128 145.330 136.049 143.530 135.791 C 141.473 135.496 139.968 131.965 135.308 116.500 L 133.500 110.500 133.240 156.750 C 133.066 187.628 133.318 203.000 133.998 203.000 C 134.558 203.000 138.959 200.758 143.779 198.018 C 159.946 188.825 179.692 185.822 215.750 187.071 C 222.771 187.315 224.354 188.006 221.750 189.691 C 221.063 190.136 211.050 190.508 199.500 190.518 C 182.913 190.533 176.819 190.917 170.500 192.345 C 158.283 195.105 148.091 198.735 141.849 202.548 C 138.741 204.447 135.093 206.000 133.742 206.000 C 131.469 206.000 131.237 205.540 130.642 199.853 C 130.289 196.473 129.916 172.285 129.814 146.103 C 129.648 103.758 129.553 101.151 128.949 122.500 C 128.576 135.700 128.210 147.513 128.136 148.750 C 128.042 150.300 127.368 151.000 125.969 151.000 C 124.851 151.000 123.648 151.788 123.294 152.750 C 122.940 153.713 122.054 154.860 121.325 155.300 C 119.323 156.508 119.492 181.309 121.542 187.118 C 122.613 190.153 122.883 193.091 122.426 196.743 C 121.855 201.313 121.996 202.000 123.499 202.000 C 125.099 202.000 125.175 200.736 124.509 185.210 C 123.892 170.823 124.006 168.240 125.305 167.161 C 126.518 166.155 126.977 166.154 127.595 167.153 C 128.570 168.731 129.470 199.991 128.636 203.313 C 127.574 207.546 125.259 207.333 114.533 202.016 C 108.742 199.146 100.188 195.918 94.647 194.512 C 83.505 191.686 64.958 190.057 54.000 190.943 C 47.855 191.439 49.843 191.660 65.000 192.168 C 80.675 192.692 84.931 193.187 92.874 195.407 C 104.365 198.620 115.601 204.370 123.319 210.990 L 129.139 215.980 136.319 209.871 C 145.702 201.888 156.963 196.467 169.587 193.858 C 178.311 192.054 181.959 191.869 200.000 192.312 C 211.275 192.589 221.513 193.134 222.750 193.524 L 225.000 194.233 225.001 179.367 C 225.002 171.190 225.300 146.613 225.664 124.750 C 226.308 86.045 226.377 85.000 228.302 85.000 C 230.256 85.000 230.270 85.635 229.540 140.750 C 229.134 171.413 228.562 196.889 228.271 197.364 C 227.979 197.840 224.986 197.912 221.620 197.524 C 180.091 192.744 158.184 196.911 138.512 213.332 C 134.118 216.999 129.944 220.000 129.235 220.000 C 128.526 220.000 124.979 217.552 121.351 214.560 C 109.658 204.915 94.210 198.326 81.000 197.348 C 61.447 195.901 48.255 195.943 40.500 197.477 C 36.100 198.347 31.600 199.158 30.500 199.279 C 28.516 199.498 28.502 198.984 28.762 134.663 C 28.971 82.828 28.770 69.909 27.762 70.241 C 27.047 70.476 26.367 72.704 26.193 75.381 C 26.000 78.351 25.350 80.312 24.443 80.660 C 23.208 81.134 23.000 89.764 23.000 140.499 L 23.000 199.783 25.623 200.441 C 27.065 200.803 31.678 200.531 35.873 199.835 C 46.764 198.030 74.356 198.285 86.000 200.298 C 104.818 203.552 112.049 207.091 118.942 216.421 L 123.063 222.000 128.577 222.000 C 134.542 222.000 134.916 221.749 141.792 213.151 C 145.322 208.737 155.689 203.146 164.000 201.174 C 181.541 197.013 216.077 197.256 211.823 201.510 C 211.524 201.809 203.454 202.216 193.890 202.413 C 167.236 202.964 153.159 206.764 145.003 215.613 C 142.801 218.001 141.000 220.422 141.000 220.992 C 141.000 223.427 134.495 225.993 128.313 225.996 C 122.635 226.000 121.894 225.741 119.313 222.853 C 110.735 213.257 106.981 210.137 101.590 208.119 C 94.601 205.505 91.498 205.260 94.818 207.585 C 96.367 208.670 96.889 209.774 96.473 211.085 C 96.012 212.538 96.350 213.000 97.874 213.000 C 101.201 213.000 101.190 214.712 97.859 215.378 C 96.149 215.720 90.194 216.006 84.625 216.014 C 72.480 216.030 69.442 216.623 71.123 218.649 C 72.074 219.794 74.905 219.930 86.445 219.384 C 102.006 218.649 105.000 219.302 105.000 223.428 C 105.000 224.725 105.675 226.045 106.500 226.362 C 107.325 226.678 108.000 228.028 108.000 229.362 C 108.000 230.695 108.679 232.047 109.510 232.365 C 112.354 233.457 134.585 234.277 141.435 233.544 C 149.579 232.672 152.344 230.505 153.351 224.206 L 154.024 220.000 202.153 220.000 L 250.283 220.000 253.368 216.697 L 256.454 213.394 256.126 145.525 C 255.875 93.442 255.512 77.369 254.566 76.423 C 253.888 75.745 252.246 75.233 250.917 75.284 C 249.588 75.335 246.588 75.028 244.250 74.601 C 241.379 74.076 240.000 74.177 240.000 74.912 C 240.000 75.510 240.450 76.000 241.000 76.000 C 241.550 76.000 242.000 76.873 242.000 77.941 C 242.000 79.009 241.550 80.160 241.000 80.500 C 240.450 80.840 240.000 83.755 240.000 86.977 C 240.000 93.206 239.347 96.000 237.893 96.000 C 237.402 96.000 236.994 88.688 236.986 79.750 C 236.969 59.002 236.968 59.000 231.383 59.000 C 228.536 59.000 227.005 59.438 227.014 60.250 M 221.000 184.500 C 219.713 184.500 219.456 180.807 219.190 158.500 C 218.923 136.105 219.131 131.467 220.690 125.050 L 222.500 117.600 222.500 151.050 C 222.500 180.117 222.303 184.500 221.000 184.500 M 213.837 89.622 C 215.577 96.289 217.000 102.302 217.000 102.985 C 217.000 103.891 215.128 104.120 210.054 103.833 C 206.233 103.617 202.836 103.170 202.505 102.839 C 202.174 102.507 203.014 98.246 204.371 93.368 C 205.728 88.491 207.358 82.530 207.992 80.123 C 208.627 77.715 209.490 76.140 209.910 76.623 C 210.331 77.105 212.098 82.955 213.837 89.622 M 239.262 122.250 C 240.346 125.097 240.049 149.852 238.922 150.548 C 236.097 152.294 235.298 144.606 236.647 128.651 C 237.251 121.497 238.144 119.313 239.262 122.250 M 240.537 193.547 C 241.278 201.460 240.761 204.417 238.749 203.755 C 238.019 203.515 237.292 200.883 237.000 197.422 C 236.662 193.419 236.095 191.581 235.250 191.750 C 234.484 191.903 234.000 190.897 234.000 189.152 C 234.000 186.691 234.396 186.293 236.921 186.221 C 239.834 186.138 239.844 186.159 240.537 193.547 M 240.167 172.500 C 240.258 174.425 240.371 176.781 240.417 177.736 C 240.463 178.691 239.744 179.618 238.820 179.796 C 237.521 180.046 236.988 179.102 236.467 175.631 C 235.740 170.778 236.300 169.000 238.559 169.000 C 239.507 169.000 240.057 170.196 240.167 172.500 M 239.523 154.072 C 240.320 156.585 239.338 161.000 237.981 161.000 C 237.441 161.000 237.000 158.975 237.000 156.500 C 237.000 151.817 238.384 150.485 239.523 154.072 M 236.000 111.500 C 236.000 114.525 235.550 117.000 235.000 117.000 C 234.450 117.000 234.000 114.525 234.000 111.500 C 234.000 108.475 234.450 106.000 235.000 106.000 C 235.550 106.000 236.000 108.475 236.000 111.500 M 128.000 157.083 C 128.000 160.909 125.644 160.566 125.184 156.673 C 124.959 154.779 125.323 154.000 126.434 154.000 C 127.517 154.000 128.000 154.951 128.000 157.083 M 236.000 157.000 C 236.000 159.200 235.550 161.000 235.000 161.000 C 234.450 161.000 234.000 159.200 234.000 157.000 C 234.000 154.800 234.450 153.000 235.000 153.000 C 235.550 153.000 236.000 154.800 236.000 157.000 "/></g>
<g fill="#52848FFF" stroke="#52848FFF">
<path d="M 186.970 9.157 C 184.658 12.081 179.822 18.755 176.222 23.987 C 159.059 48.932 152.603 57.255 141.394 68.894 L 129.287 81.463 123.598 76.264 C 116.126 69.435 105.645 64.334 95.500 62.590 C 76.927 59.396 49.155 57.824 50.527 60.044 C 51.715 61.966 48.185 65.855 44.954 66.185 L 41.869 66.500 41.962 95.250 C 42.014 111.063 41.886 124.000 41.677 124.000 C 41.469 124.000 39.881 123.506 38.149 122.902 L 35.000 121.804 34.853 106.152 C 34.739 94.060 34.537 91.865 33.962 96.500 C 33.552 99.800 33.168 121.963 33.109 145.750 C 33.017 182.369 33.216 189.000 34.411 189.000 C 35.434 189.000 35.916 187.328 36.161 182.922 C 36.348 179.579 36.259 176.317 35.965 175.672 C 35.672 175.027 35.672 163.255 35.965 149.512 C 36.452 126.755 36.656 124.494 38.250 124.189 C 39.876 123.877 39.996 125.438 39.942 146.177 C 39.911 158.455 39.555 170.300 39.151 172.500 C 38.738 174.753 38.862 177.710 39.436 179.271 C 40.173 181.275 40.115 182.587 39.227 184.008 C 37.341 187.028 37.683 190.000 39.917 190.000 C 40.971 190.000 41.998 189.505 42.200 188.900 C 42.751 187.247 61.000 186.166 73.000 187.075 C 85.058 187.988 95.385 190.022 105.067 193.388 C 111.303 195.557 111.957 195.614 113.452 194.120 C 114.822 192.750 115.207 192.717 115.944 193.909 C 116.423 194.684 116.609 195.855 116.357 196.511 C 115.977 197.501 119.886 201.000 121.371 201.000 C 122.812 201.000 122.942 191.044 121.552 187.124 C 119.551 181.482 119.314 156.538 121.250 155.300 C 124.736 153.070 125.000 150.401 125.000 117.427 L 125.000 84.827 119.461 79.419 C 112.944 73.056 110.687 71.784 102.000 69.573 C 91.370 66.868 89.293 62.600 99.666 64.775 C 107.508 66.421 113.186 69.403 119.555 75.224 C 126.405 81.484 129.788 88.414 137.600 112.182 C 140.797 121.907 143.796 129.626 144.265 129.337 C 145.680 128.462 144.133 123.291 137.333 106.167 C 128.269 83.340 128.308 84.359 136.197 76.469 C 142.308 70.359 145.000 68.694 145.000 71.025 C 145.000 71.589 142.308 74.945 139.017 78.482 L 133.034 84.913 134.993 89.484 C 136.071 91.998 138.113 97.980 139.532 102.777 C 143.918 117.608 146.221 123.356 147.128 121.735 C 147.576 120.935 153.612 105.525 160.542 87.490 C 169.845 63.279 172.974 54.034 172.503 52.155 C 172.026 50.256 172.396 49.210 173.960 48.030 C 175.299 47.020 178.926 38.903 184.009 25.539 C 188.383 14.038 191.785 4.451 191.568 4.234 C 191.351 4.017 189.282 6.233 186.970 9.157 M 79.988 61.823 C 87.908 62.388 89.532 62.789 89.812 64.250 C 90.094 65.724 89.387 65.995 85.323 65.969 C 77.787 65.922 55.871 64.204 55.282 63.615 C 54.991 63.324 55.007 62.425 55.317 61.616 C 55.910 60.072 55.404 60.068 79.988 61.823 "/></g>
<g fill="#52848FFF" stroke="#52848FFF">
<path d="M 21.672 71.891 C 21.302 73.738 20.994 90.156 20.986 108.375 C 20.979 126.594 20.701 142.513 20.370 143.750 C 18.554 150.527 18.000 142.615 18.000 109.880 L 18.000 73.760 12.122 74.185 C 8.881 74.419 5.048 75.394 3.577 76.358 L 0.910 78.105 1.551 145.803 C 2.271 221.917 1.820 217.807 9.608 219.192 C 11.749 219.573 26.718 219.911 42.872 219.942 C 67.715 219.991 72.069 219.788 71.101 218.622 C 69.445 216.627 72.540 216.030 84.625 216.014 C 90.194 216.006 96.149 215.720 97.859 215.378 C 101.149 214.720 101.217 213.000 97.953 213.000 C 96.569 213.000 96.091 212.389 96.262 210.839 C 96.700 206.864 91.462 204.949 75.367 203.200 C 63.165 201.874 58.726 201.807 48.144 202.787 C 29.541 204.511 22.662 205.887 24.083 207.600 C 25.588 209.413 22.435 210.764 20.114 209.301 C 18.698 208.408 18.468 204.642 18.235 178.565 C 17.986 150.625 18.076 148.868 19.735 149.187 C 21.360 149.500 21.521 151.611 21.767 175.828 L 22.033 202.130 24.767 201.706 C 27.408 201.296 27.424 201.257 25.250 200.524 L 23.000 199.767 23.000 140.490 C 23.000 88.723 23.190 81.141 24.500 80.638 C 26.554 79.850 26.630 71.000 24.583 71.000 C 23.804 71.000 22.982 70.445 22.755 69.766 C 22.529 69.087 22.041 70.043 21.672 71.891 "/></g>
<g fill="#F8F9F8FF" stroke="#F8F9F8FF">
<path d="M 225.664 124.750 C 225.300 146.613 225.002 171.190 225.001 179.367 L 225.000 194.233 222.750 193.524 C 221.513 193.134 211.275 192.589 200.000 192.312 C 181.959 191.869 178.311 192.054 169.587 193.858 C 156.963 196.467 145.702 201.888 136.319 209.871 L 129.139 215.980 123.319 210.990 C 115.601 204.370 104.365 198.620 92.874 195.407 C 84.931 193.187 80.675 192.692 65.000 192.168 C 49.843 191.660 47.855 191.439 54.000 190.943 C 64.958 190.057 83.505 191.686 94.647 194.512 C 100.188 195.918 108.742 199.146 114.533 202.016 C 125.259 207.333 127.574 207.546 128.636 203.313 C 129.470 199.991 128.570 168.731 127.595 167.153 C 126.977 166.154 126.518 166.155 125.305 167.161 C 124.006 168.240 123.892 170.823 124.509 185.210 C 125.015 197.011 124.908 202.000 124.149 202.000 C 123.555 202.000 120.241 200.457 116.784 198.572 C 102.989 191.047 84.461 186.925 63.967 186.820 C 56.524 186.782 48.571 187.066 46.295 187.450 C 41.533 188.255 39.890 190.654 43.250 191.897 C 44.953 192.527 43.928 192.882 38.830 193.428 C 35.180 193.819 31.362 194.774 30.346 195.550 C 27.008 198.103 30.529 198.730 39.773 197.228 C 52.363 195.183 79.716 196.084 90.500 198.899 C 101.242 201.704 113.054 207.678 121.223 214.437 C 124.921 217.497 128.526 220.000 129.235 220.000 C 129.944 220.000 134.118 216.999 138.512 213.332 C 158.184 196.911 180.091 192.744 221.620 197.524 C 224.986 197.912 227.979 197.840 228.271 197.364 C 228.562 196.889 229.134 171.413 229.540 140.750 C 230.270 85.635 230.256 85.000 228.302 85.000 C 226.377 85.000 226.308 86.045 225.664 124.750 "/></g>
<g fill="#F8F9F8FF" stroke="#F8F9F8FF">
<path d="M 18.235 178.565 C 18.468 204.642 18.698 208.408 20.114 209.301 C 22.435 210.764 25.588 209.413 24.083 207.600 C 23.146 206.471 24.069 206.023 29.221 205.106 C 44.650 202.357 58.869 201.619 72.250 202.873 C 96.483 205.142 106.737 208.478 113.456 216.280 C 122.157 226.381 121.574 226.000 128.313 225.996 C 134.495 225.993 141.000 223.427 141.000 220.992 C 141.000 220.422 142.801 218.001 145.003 215.613 C 153.159 206.764 167.236 202.964 193.890 202.413 C 203.454 202.216 211.524 201.809 211.823 201.510 C 216.077 197.256 181.541 197.013 164.000 201.174 C 155.689 203.146 145.322 208.737 141.792 213.151 C 134.916 221.749 134.542 222.000 128.577 222.000 L 123.063 222.000 118.942 216.421 C 112.052 207.095 104.839 203.563 86.000 200.291 C 72.934 198.021 45.680 198.029 33.250 200.306 C 28.162 201.238 23.557 202.000 23.016 202.000 C 22.404 202.000 21.933 192.104 21.767 175.763 C 21.521 151.608 21.360 149.500 19.735 149.187 C 18.076 148.868 17.986 150.625 18.235 178.565 "/></g>
<g fill="#F8F9F8FF" stroke="#F8F9F8FF">
<path d="M 35.548 60.947 C 33.914 62.753 33.840 65.019 34.523 92.394 L 35.258 121.894 38.278 122.947 C 39.939 123.526 41.469 124.000 41.677 124.000 C 41.886 124.000 42.014 111.063 41.962 95.250 L 41.869 66.500 44.954 66.185 C 48.185 65.855 51.715 61.966 50.527 60.044 C 50.172 59.470 47.053 59.000 43.596 59.000 C 38.637 59.000 36.938 59.411 35.548 60.947 "/></g>
<g fill="#F8F9F8FF" stroke="#F8F9F8FF">
<path d="M 220.690 125.050 C 219.131 131.467 218.923 136.105 219.190 158.500 C 219.456 180.807 219.713 184.500 221.000 184.500 C 222.303 184.500 222.500 180.117 222.500 151.050 L 222.500 117.600 220.690 125.050 "/></g>
<g fill="#F8F9F8FF" stroke="#F8F9F8FF">
<path d="M 36.639 124.775 C 36.375 125.202 36.120 137.014 36.071 151.025 C 36.022 165.036 35.962 178.683 35.937 181.351 C 35.905 184.766 36.257 186.081 37.124 185.792 C 39.518 184.994 40.511 182.196 39.437 179.275 C 38.862 177.711 38.737 174.755 39.151 172.500 C 39.555 170.300 39.911 158.488 39.942 146.250 C 39.991 127.517 39.772 124.000 38.559 124.000 C 37.766 124.000 36.902 124.349 36.639 124.775 "/></g>
<g fill="#F8F9F8FF" stroke="#F8F9F8FF">
<path d="M 207.992 80.123 C 207.358 82.530 205.728 88.491 204.371 93.368 C 203.014 98.246 202.174 102.507 202.505 102.839 C 202.836 103.170 206.233 103.617 210.054 103.833 C 215.128 104.120 217.000 103.891 217.000 102.985 C 217.000 100.892 210.724 77.557 209.910 76.623 C 209.490 76.140 208.627 77.715 207.992 80.123 M 211.236 92.297 C 211.484 96.740 211.389 96.942 209.632 95.688 C 208.082 94.581 207.887 93.628 208.486 90.081 C 209.388 84.742 210.881 85.945 211.236 92.297 "/></g>
<g fill="#52848FFF" stroke="#52848FFF">
<path d="M 28.757 113.500 C 27.602 124.384 27.820 198.771 29.009 199.506 C 29.564 199.848 31.026 199.783 32.259 199.361 L 34.500 198.593 32.218 198.431 C 29.308 198.226 28.480 197.383 29.607 195.774 C 30.117 195.047 30.285 175.600 30.000 150.500 C 29.686 122.833 29.224 109.098 28.757 113.500 "/></g>
<g fill="#F8F9F8FF" stroke="#F8F9F8FF">
<path d="M 187.250 187.200 C 181.861 188.575 181.775 190.000 187.082 190.000 C 189.327 190.000 197.427 190.240 205.083 190.534 C 218.487 191.049 223.000 190.414 223.000 188.012 C 223.000 187.507 220.413 187.129 217.250 187.171 C 214.088 187.214 207.000 186.994 201.500 186.682 C 195.600 186.348 189.758 186.561 187.250 187.200 "/></g>
<g fill="#F8F9F8FF" stroke="#F8F9F8FF">
<path d="M 55.317 61.616 C 55.007 62.425 54.991 63.324 55.282 63.615 C 55.871 64.204 77.787 65.922 85.323 65.969 C 89.387 65.995 90.094 65.724 89.812 64.250 C 89.532 62.789 87.908 62.388 79.988 61.823 C 55.404 60.068 55.910 60.072 55.317 61.616 "/></g>
<g fill="#F8F9F8FF" stroke="#F8F9F8FF">
<path d="M 236.647 128.651 C 235.298 144.606 236.097 152.294 238.922 150.548 C 240.049 149.852 240.346 125.097 239.262 122.250 C 238.144 119.313 237.251 121.497 236.647 128.651 "/></g>
<g fill="#3EA9C2FF" stroke="#3EA9C2FF">
<path d="M 191.540 59.158 C 182.762 59.632 175.134 60.466 174.588 61.012 C 173.932 61.668 178.320 61.750 187.548 61.252 C 195.222 60.838 206.563 60.500 212.751 60.500 C 223.398 60.500 226.016 59.987 222.418 58.607 C 220.509 57.874 212.717 58.013 191.540 59.158 "/></g>
<g fill="#F8F9F8FF" stroke="#F8F9F8FF">
<path d="M 234.000 189.152 C 234.000 190.897 234.484 191.903 235.250 191.750 C 236.095 191.581 236.662 193.419 237.000 197.422 C 237.292 200.883 238.019 203.515 238.749 203.755 C 240.761 204.417 241.278 201.460 240.537 193.547 C 239.844 186.159 239.834 186.138 236.921 186.221 C 234.396 186.293 234.000 186.691 234.000 189.152 "/></g>
<g fill="#3EA9C2FF" stroke="#3EA9C2FF">
<path d="M 36.000 187.500 C 36.000 188.325 35.306 189.000 34.458 189.000 C 32.252 189.000 30.232 191.170 30.715 193.019 C 31.076 194.398 32.022 194.463 38.191 193.535 L 45.254 192.473 41.627 191.050 C 39.314 190.142 38.000 188.970 38.000 187.813 C 38.000 186.816 37.550 186.000 37.000 186.000 C 36.450 186.000 36.000 186.675 36.000 187.500 "/></g>
<g fill="#52848FFF" stroke="#52848FFF">
<path d="M 22.667 59.667 C 22.300 60.033 22.036 61.721 22.079 63.417 C 22.122 65.113 22.389 65.925 22.672 65.222 C 23.017 64.362 24.253 64.144 26.454 64.557 C 29.285 65.088 29.806 64.858 30.347 62.835 C 30.691 61.551 30.979 60.163 30.986 59.750 C 31.003 58.822 23.585 58.748 22.667 59.667 "/></g>
<g fill="#F8F9F8FF" stroke="#F8F9F8FF">
<path d="M 236.456 170.071 C 236.092 170.660 236.097 173.162 236.467 175.631 C 236.988 179.102 237.521 180.046 238.820 179.796 C 239.744 179.618 240.463 178.691 240.417 177.736 C 240.371 176.781 240.258 174.425 240.167 172.500 C 240.002 169.037 237.933 167.682 236.456 170.071 "/></g>
<g fill="#3EA9C2FF" stroke="#3EA9C2FF">
<path d="M 208.486 90.081 C 207.887 93.628 208.082 94.581 209.632 95.688 C 211.389 96.942 211.484 96.740 211.236 92.297 C 210.881 85.945 209.388 84.742 208.486 90.081 "/></g>
<g fill="#F8F9F8FF" stroke="#F8F9F8FF">
<path d="M 237.000 156.500 C 237.000 158.975 237.441 161.000 237.981 161.000 C 239.338 161.000 240.320 156.585 239.523 154.072 C 238.384 150.485 237.000 151.817 237.000 156.500 "/></g>
<g fill="#F8F9F8FF" stroke="#F8F9F8FF">
<path d="M 234.000 111.500 C 234.000 114.525 234.450 117.000 235.000 117.000 C 235.550 117.000 236.000 114.525 236.000 111.500 C 236.000 108.475 235.550 106.000 235.000 106.000 C 234.450 106.000 234.000 108.475 234.000 111.500 "/></g>
<g fill="#F8F9F8FF" stroke="#F8F9F8FF">
<path d="M 125.184 156.673 C 125.644 160.566 128.000 160.909 128.000 157.083 C 128.000 154.951 127.517 154.000 126.434 154.000 C 125.323 154.000 124.959 154.779 125.184 156.673 "/></g>
<g fill="#F8F9F8FF" stroke="#F8F9F8FF">
<path d="M 234.000 157.000 C 234.000 159.200 234.450 161.000 235.000 161.000 C 235.550 161.000 236.000 159.200 236.000 157.000 C 236.000 154.800 235.550 153.000 235.000 153.000 C 234.450 153.000 234.000 154.800 234.000 157.000 "/></g>
<g fill="#3EA9C2FF" stroke="#3EA9C2FF">
<path d="M 113.058 194.430 C 112.110 195.572 112.271 196.075 113.855 196.922 C 115.974 198.056 117.158 196.732 116.246 194.250 C 115.641 192.605 114.520 192.668 113.058 194.430 "/></g>
<g fill="#52848FFF" stroke="#52848FFF">
<path d="M 74.000 197.000 C 77.419 198.095 80.048 198.095 77.500 197.000 C 76.400 196.527 74.600 196.154 73.500 196.170 C 71.892 196.194 71.990 196.356 74.000 197.000 "/></g>
<g fill="#52848FFF" stroke="#52848FFF">
<path d="M 34.000 60.714 C 34.000 62.333 34.095 62.333 35.714 60.714 C 37.333 59.095 37.333 59.000 35.714 59.000 C 34.762 59.000 34.000 59.762 34.000 60.714 "/></g>
</svg>
